<svg xmlns="http://www.w3.org/2000/svg" width="24" height="24" fill="none"><path fill="url(#a)" d="M6.5 16c.783 0 1.546.087 2.287.262.742.175 1.48.438 2.213.788V7.2c-.683-.4-1.408-.7-2.175-.9a9.175 9.175 0 0 0-4.112-.125A8.665 8.665 0 0 0 3 6.7v9.9c.583-.2 1.162-.35 1.737-.45C5.313 16.05 5.9 16 6.5 16Zm6.5 1.05c.733-.35 1.47-.613 2.213-.788a10.268 10.268 0 0 1 4.05-.113c.575.101 1.154.251 1.737.451V6.7a8.664 8.664 0 0 0-1.712-.525 9.218 9.218 0 0 0-4.113.125c-.767.2-1.492.5-2.175.9v9.85Zm-1 2.425c-.233 0-.454-.03-.662-.088a2.796 2.796 0 0 1-.588-.237 8.182 8.182 0 0 0-2.05-.862A8.477 8.477 0 0 0 6.5 18c-.7 0-1.388.092-2.063.275a9.05 9.05 0 0 0-1.937.775c-.35.183-.688.175-1.012-.025A.966.966 0 0 1 1 18.15V6.1c0-.183.046-.358.137-.525A.863.863 0 0 1 1.55 5.2c.767-.4 1.567-.7 2.4-.9.833-.2 1.683-.3 2.55-.3A10.78 10.78 0 0 1 12 5.5 10.78 10.78 0 0 1 17.5 4c.867 0 1.717.1 2.55.3.833.2 1.633.5 2.4.9.183.083.32.208.413.375.091.167.137.342.137.525v12.05a.966.966 0 0 1-.488.875c-.325.2-.662.208-1.012.025a9.05 9.05 0 0 0-1.938-.775A7.836 7.836 0 0 0 17.5 18c-.75 0-1.483.096-2.2.288-.717.191-1.4.479-2.05.862-.183.1-.38.18-.588.238-.208.058-.429.087-.662.087Zm2-10.7a.82.82 0 0 1 .162-.463.79.79 0 0 1 .363-.312 9.281 9.281 0 0 1 1.45-.375A8.969 8.969 0 0 1 17.5 7.5c.333 0 .663.02.988.063.325.041.645.095.962.162.15.033.28.117.387.25a.695.695 0 0 1 .163.45c0 .283-.092.492-.275.625-.183.133-.417.167-.7.1a6.516 6.516 0 0 0-.737-.113A8.17 8.17 0 0 0 17.5 9c-.433 0-.858.042-1.275.125a9.05 9.05 0 0 0-1.2.325c-.3.117-.546.108-.738-.025-.191-.133-.287-.35-.287-.65Zm0 5.5a.82.82 0 0 1 .162-.463.79.79 0 0 1 .363-.312 9.274 9.274 0 0 1 1.45-.375A8.972 8.972 0 0 1 17.5 13c.333 0 .663.02.988.063.325.041.645.095.962.162.15.033.28.117.387.25a.695.695 0 0 1 .163.45c0 .283-.092.492-.275.625-.183.133-.417.167-.7.1a6.516 6.516 0 0 0-.737-.113 8.17 8.17 0 0 0-.788-.037c-.433 0-.858.037-1.275.113-.417.075-.817.179-1.2.312-.3.117-.546.112-.738-.013-.191-.125-.287-.337-.287-.637Zm0-2.75a.82.82 0 0 1 .162-.463.79.79 0 0 1 .363-.312 9.274 9.274 0 0 1 1.45-.375 8.972 8.972 0 0 1 1.525-.125c.333 0 .663.02.988.063.325.041.645.095.962.162.15.033.28.117.387.25a.695.695 0 0 1 .163.45c0 .283-.092.492-.275.625-.183.133-.417.167-.7.1a6.516 6.516 0 0 0-.737-.113 8.17 8.17 0 0 0-.788-.037c-.433 0-.858.042-1.275.125a9.05 9.05 0 0 0-1.2.325c-.3.117-.546.108-.738-.025-.191-.133-.287-.35-.287-.65Z"/><defs><linearGradient id="a" x1="12" x2="12" y1="4" y2="19.475" gradientUnits="userSpaceOnUse"><stop stop-color="#8B52C9"/><stop offset="1" stop-color="#AB85EE"/></linearGradient></defs></svg>