<svg xmlns="http://www.w3.org/2000/svg" width="150" height="54" fill="none"><rect width="150" height="54" fill="#121212" rx="5"/><path fill="#fff" fill-rule="evenodd" d="M37.5 8C49.374 8 59 16.72 59 27.48c0 8.606-6.153 15.905-14.69 18.484-1.091.192-1.478-.417-1.478-.935 0-.643.026-2.74.026-5.347 0-1.816-.688-3.002-1.46-3.606 4.788-.483 9.819-2.13 9.819-9.612 0-2.128-.834-3.865-2.215-5.229.224-.492.962-2.473-.21-5.156 0 0-1.802-.522-5.906 1.997a22.696 22.696 0 0 0-5.386-.656 22.647 22.647 0 0 0-5.381.656c-4.11-2.52-5.915-1.997-5.915-1.997-1.168 2.683-.43 4.664-.209 5.156-1.373 1.364-2.214 3.1-2.214 5.229 0 7.463 5.02 9.136 9.795 9.628-.615.486-1.172 1.344-1.365 2.604-1.226.498-4.339 1.36-6.256-1.618 0 0-1.138-1.872-3.296-2.009 0 0-2.097-.024-.147 1.184 0 0 1.409.599 2.387 2.85 0 0 1.262 3.477 7.243 2.3.011 1.627.03 3.162.03 3.626 0 .514-.395 1.117-1.468.937C22.16 43.39 16 36.087 16 27.48 16 16.72 25.628 8 37.5 8Z" clip-rule="evenodd"/><path fill="#fff" d="M78.3 19.8c1.787 0 3.327.567 4.62 1.7l-1.66 1.74c-.493-.373-.953-.64-1.38-.8-.413-.173-.893-.26-1.44-.26-1.027 0-1.847.407-2.46 1.22-.613.8-.92 2.02-.92 3.66 0 1.773.233 3.033.7 3.78.467.733 1.193 1.1 2.18 1.1.693 0 1.32-.153 1.88-.46v-3.14h-1.8l-.32-2.32H83v6.86a8.977 8.977 0 0 1-2.38 1.08 9.228 9.228 0 0 1-2.6.38c-2.107 0-3.693-.613-4.76-1.84-1.067-1.24-1.6-3.053-1.6-5.44 0-1.52.287-2.827.86-3.92.587-1.093 1.38-1.92 2.38-2.48 1.013-.573 2.147-.86 3.4-.86Zm9.99 3.58V34h-3.16V23.38h3.16Zm-1.6-5.6c.547 0 .994.173 1.34.52.36.333.54.76.54 1.28s-.18.953-.54 1.3c-.346.333-.793.5-1.34.5-.546 0-.993-.167-1.34-.5-.346-.347-.52-.78-.52-1.3s.174-.947.52-1.28c.347-.347.794-.52 1.34-.52ZM97.436 33.5c-.386.267-.84.473-1.36.62a5.443 5.443 0 0 1-1.52.22c-2.32-.013-3.48-1.293-3.48-3.84v-4.92h-1.5v-2.2h1.5v-2.3l3.16-.36v2.66h2.44l-.34 2.2h-2.1v4.88c0 .493.08.847.24 1.06.16.213.413.32.76.32.36 0 .74-.113 1.14-.34l1.06 2Zm8.555.5v-5.94h-4.16V34h-3.28V20.14h3.28v5.36h4.16v-5.36h3.28V34h-3.28Zm14.78 0h-2.74l-.14-1.34c-.773 1.12-1.846 1.68-3.22 1.68-.973 0-1.713-.293-2.22-.88-.493-.587-.74-1.407-.74-2.46v-7.62h3.16v7.22c0 .52.08.887.24 1.1.174.2.434.3.78.3.667 0 1.24-.413 1.72-1.24v-7.38h3.16V34Zm8.506-10.96c1.266 0 2.24.5 2.92 1.5.68.987 1.02 2.373 1.02 4.16 0 1.093-.174 2.067-.52 2.92-.334.853-.82 1.52-1.46 2-.627.48-1.374.72-2.24.72-.574 0-1.1-.12-1.58-.36a3.591 3.591 0 0 1-1.2-1l-.16 1.02h-2.8V19.16l3.16-.34v5.64c.32-.44.726-.787 1.22-1.04a3.614 3.614 0 0 1 1.64-.38Zm-1.2 9c1.24 0 1.86-1.113 1.86-3.34 0-1.267-.147-2.14-.44-2.62-.294-.48-.72-.72-1.28-.72-.707 0-1.307.413-1.8 1.24v4.42c.2.32.44.573.72.76.293.173.606.26.94.26Z"/></svg>