<svg xmlns="http://www.w3.org/2000/svg" width="192" height="54" fill="none"><rect width="192" height="54" fill="#0A66C2" rx="5"/><path fill="#fff" d="m79.143 30.257 8.828 10.314H81L73.143 31.1v9.472h-5.714V13.43h5.714v15.96L80.4 21.57h7.286l-8.543 8.686ZM56.286 21.03c-2.54.036-4.9 1.253-6.315 3.257V21.57h-5.4v19h5.715v-8.875a4.567 4.567 0 0 1 1.172-3.6c.9-.993 2.193-1.587 3.57-1.639 3.315 0 3.83 3.094 3.83 5.239v8.875h5.713v-10.07c0-5.971-2.085-9.472-8.171-9.472h-.114Zm51.143 10.477c.021.398.021.796 0 1.194h-15v.19c.502 2.338 2.718 3.983 5.228 3.881 1.948.08 3.846-.595 5.257-1.872l3.8 2.714c-2.435 2.36-5.808 3.633-9.285 3.501-2.882.173-5.7-.848-7.728-2.8-2.027-1.953-3.065-4.644-2.844-7.378-.059-2.697 1.065-5.296 3.102-7.175 2.037-1.879 4.805-2.869 7.641-2.732 5.371 0 9.829 3.61 9.829 10.477Zm-5.315-2.335a3.886 3.886 0 0 0-1.412-2.827 4.313 4.313 0 0 0-3.13-.973c-2.513-.258-4.788 1.424-5.143 3.8h9.685Zm-80.4-15.742H16V40.57h17.143v-5.428H21.714V13.429Zm102.857 0h5.715V40.57h-5.4v-1.9c-1.391 1.628-3.51 2.534-5.715 2.443-2.684-.065-5.22-1.18-7.011-3.081-1.79-1.901-2.675-4.42-2.446-6.962-.273-2.546.593-5.084 2.386-6.994 1.794-1.91 4.349-3.016 7.043-3.048 2.004-.084 3.96.6 5.428 1.9v-9.5ZM125 31.07a4.274 4.274 0 0 0-1.111-3.511c-.887-.963-2.17-1.514-3.518-1.51-2.733.188-4.804 2.422-4.657 5.021-.147 2.6 1.924 4.833 4.657 5.022 1.348.004 2.631-.547 3.518-1.51A4.275 4.275 0 0 0 125 31.071ZM38.857 12.886c-1.906.026-3.466 1.448-3.571 3.257 0 1.874 1.599 3.393 3.571 3.393 1.973 0 3.572-1.52 3.572-3.393-.105-1.809-1.666-3.232-3.572-3.257ZM36 40.57h5.714v-19H36v19Zm140-29.857v32.572c0 1.499-1.279 2.714-2.857 2.714h-34.286c-1.578 0-2.857-1.215-2.857-2.714V10.714C136 9.215 137.279 8 138.857 8h34.286C174.721 8 176 9.215 176 10.714Zm-28.571 10.857h-5.715v19h5.715v-19Zm.714-5.428c0-1.874-1.599-3.393-3.572-3.393-1.972 0-3.571 1.519-3.571 3.393 0 1.874 1.599 3.393 3.571 3.393 1.973 0 3.572-1.52 3.572-3.393ZM170.286 30.5c0-5.971-2.086-9.472-8.172-9.472-2.58 0-4.991 1.221-6.428 3.257V21.57h-5.4v19H156v-8.875a4.567 4.567 0 0 1 1.172-3.6 5.077 5.077 0 0 1 3.571-1.639c3.314 0 3.828 3.094 3.828 5.239v8.875h5.715v-10.07Z"/></svg>