<svg xmlns="http://www.w3.org/2000/svg" width="228" height="26" fill="none"><path fill="#FAFAFA" d="M17.324 24.028.116 16.324v-4.788l17.208-7.668v5.4L6.272 13.912l11.052 4.68v5.436ZM30.97 25.36c-1.153 0-2.16-.144-3.025-.432a7.408 7.408 0 0 1-2.34-1.368L25.317 25h-5.04V.736h5.796v7.992a7.768 7.768 0 0 1 2.196-.864 10.966 10.966 0 0 1 2.52-.288c2.496 0 4.464.696 5.904 2.088 1.44 1.368 2.16 3.588 2.16 6.66s-.708 5.352-2.124 6.84c-1.416 1.464-3.336 2.196-5.76 2.196Zm-1.657-4.212c1.296 0 2.22-.384 2.772-1.152.576-.792.864-2.004.864-3.636 0-1.68-.3-2.856-.9-3.528-.576-.672-1.488-1.008-2.736-1.008-1.368 0-2.448.36-3.24 1.08v6.948c.864.864 1.944 1.296 3.24 1.296ZM41.793 25V7.936h5.508l.18 1.584c.744-.456 1.668-.864 2.772-1.224a13.657 13.657 0 0 1 3.312-.72v4.356c-.624.072-1.32.192-2.088.36a20.29 20.29 0 0 0-2.16.54c-.672.216-1.248.444-1.728.684V25h-5.796ZM64.19 25.36c-2.975 0-5.363-.732-7.163-2.196-1.8-1.488-2.7-3.72-2.7-6.696 0-2.712.744-4.872 2.232-6.48 1.488-1.608 3.72-2.412 6.696-2.412 2.712 0 4.812.696 6.3 2.088 1.488 1.392 2.232 3.264 2.232 5.616v3.06H59.69c.264 1.128.876 1.92 1.836 2.376.984.432 2.316.648 3.996.648.936 0 1.884-.084 2.844-.252.984-.168 1.8-.384 2.448-.648v3.78c-.816.384-1.788.66-2.916.828a22.154 22.154 0 0 1-3.708.288Zm-4.5-10.368h7.057v-.756c0-.84-.252-1.5-.756-1.98-.504-.504-1.356-.756-2.556-.756-1.392 0-2.364.288-2.916.864-.552.552-.828 1.428-.828 2.628ZM78.778 25 72.046 7.936h6.048l3.744 11.088 3.78-11.088h6.048L84.934 25h-6.156ZM98.613 25.36a25.09 25.09 0 0 1-3.888-.288c-1.224-.192-2.196-.432-2.916-.72v-4.428c.84.36 1.812.636 2.916.828 1.104.192 2.088.288 2.952.288 1.032 0 1.776-.048 2.232-.144.48-.096.72-.36.72-.792 0-.48-.384-.84-1.152-1.08-.768-.24-1.824-.588-3.168-1.044-1.56-.552-2.748-1.188-3.564-1.908-.792-.744-1.188-1.836-1.188-3.276 0-1.68.624-2.964 1.872-3.852 1.272-.912 3.288-1.368 6.048-1.368 1.08 0 2.148.084 3.204.252 1.056.168 1.92.36 2.592.576v4.356c-.672-.312-1.44-.54-2.304-.684a14.363 14.363 0 0 0-2.34-.216c-.888 0-1.644.06-2.268.18-.6.096-.9.348-.9.756 0 .456.336.78 1.008.972.672.168 1.644.456 2.916.864 1.344.408 2.388.852 3.132 1.332.744.456 1.272 1.008 1.584 1.656.312.648.468 1.464.468 2.448 0 1.704-.672 3.012-2.016 3.924-1.344.912-3.324 1.368-5.94 1.368ZM117.977 25.36c-3.048 0-5.436-.744-7.164-2.232-1.704-1.488-2.556-3.708-2.556-6.66 0-3 .888-5.232 2.664-6.696 1.8-1.464 4.188-2.196 7.164-2.196 1.248 0 2.328.096 3.24.288a10.74 10.74 0 0 1 2.7.864v4.104c-1.344-.648-2.916-.972-4.716-.972-1.68 0-2.964.336-3.852 1.008-.864.672-1.296 1.872-1.296 3.6 0 1.608.408 2.784 1.224 3.528.816.72 2.112 1.08 3.888 1.08 1.752 0 3.348-.36 4.788-1.08v4.284c-.864.384-1.8.66-2.808.828-.984.168-2.076.252-3.276.252Z"/><path fill="#9B67D2" d="M126.292 25v-4.248h4.644V25h-4.644Z"/><path fill="#FAFAFA" d="M141.066 25.36c-1.656 0-3.072-.264-4.248-.792-1.176-.528-2.076-1.392-2.7-2.592-.624-1.224-.936-2.856-.936-4.896 0-2.064.36-3.792 1.08-5.184.72-1.416 1.704-2.484 2.952-3.204 1.272-.744 2.724-1.116 4.356-1.116.888 0 1.68.096 2.376.288.72.192 1.392.48 2.016.864V.736h5.796V25h-5.004l-.324-1.44a7.408 7.408 0 0 1-2.34 1.368c-.864.288-1.872.432-3.024.432Zm1.656-4.212c1.272 0 2.352-.432 3.24-1.296V12.94c-.816-.744-1.86-1.116-3.132-1.116-1.224 0-2.16.468-2.808 1.404-.624.912-.936 2.208-.936 3.888 0 1.632.3 2.712.9 3.24.624.528 1.536.792 2.736.792ZM164.21 25.36c-2.976 0-5.364-.732-7.164-2.196-1.8-1.488-2.7-3.72-2.7-6.696 0-2.712.744-4.872 2.232-6.48 1.488-1.608 3.72-2.412 6.696-2.412 2.712 0 4.812.696 6.3 2.088 1.488 1.392 2.232 3.264 2.232 5.616v3.06H159.71c.264 1.128.876 1.92 1.836 2.376.984.432 2.316.648 3.996.648.936 0 1.884-.084 2.844-.252.984-.168 1.8-.384 2.448-.648v3.78c-.816.384-1.788.66-2.916.828a22.154 22.154 0 0 1-3.708.288Zm-4.5-10.368h7.056v-.756c0-.84-.252-1.5-.756-1.98-.504-.504-1.356-.756-2.556-.756-1.392 0-2.364.288-2.916.864-.552.552-.828 1.428-.828 2.628ZM178.797 25l-6.732-17.064h6.048l3.744 11.088 3.78-11.088h6.048L184.953 25h-6.156Z"/><path fill="#9B67D2" d="m193.932 25 8.424-23.832h5.94L199.872 25h-5.94Z"/><path fill="#FAFAFA" d="M210.526 24.028v-5.436l11.016-4.68-11.016-4.644v-5.4l17.208 7.668v4.788l-17.208 7.704Z"/></svg>