<svg width="150" height="54" viewBox="0 0 150 54" fill="none" xmlns="http://www.w3.org/2000/svg">
<rect width="150" height="54" rx="5" fill="#121212"/>
<path fill-rule="evenodd" clip-rule="evenodd" d="M37.5 8C49.3745 8 59 16.7209 59 27.4805C59 36.0856 52.8467 43.3855 44.3091 45.9638C43.219 46.1557 42.832 45.5473 42.832 45.0286C42.832 44.3864 42.8578 42.2889 42.8578 39.6821C42.8578 37.8657 42.1698 36.6802 41.398 36.076C46.186 35.5934 51.217 33.9459 51.217 26.4637C51.217 24.3358 50.3828 22.5992 49.0025 21.235C49.2261 20.7429 49.9636 18.7615 48.7918 16.0787C48.7918 16.0787 46.9901 15.5567 42.8857 18.0761C41.1679 17.6448 39.3275 17.4278 37.5 17.4202C35.6725 17.4278 33.8343 17.6448 32.1186 18.0761C28.0099 15.5567 26.2039 16.0787 26.2039 16.0787C25.0365 18.7615 25.7739 20.7429 25.9954 21.235C24.6215 22.5992 23.7809 24.3358 23.7809 26.4637C23.7809 33.9269 28.8011 35.5997 33.5763 36.0918C32.9614 36.5782 32.4045 37.4362 32.211 38.6959C30.9855 39.1937 27.8723 40.0552 25.9545 37.0779C25.9545 37.0779 24.8172 35.2062 22.6586 35.0694C22.6586 35.0694 20.5623 35.0448 22.5123 36.2532C22.5123 36.2532 23.9206 36.8517 24.8989 39.1032C24.8989 39.1032 26.1609 42.5801 32.1422 41.4021C32.153 43.0304 32.1723 44.565 32.1723 45.0286C32.1723 45.5435 31.7767 46.1461 30.7038 45.9656C22.1597 43.3911 16 36.0875 16 27.4805C16 16.7209 25.6277 8 37.5 8Z" fill="white"/>
<path d="M78.3 19.8C80.0867 19.8 81.6267 20.3667 82.92 21.5L81.26 23.24C80.7667 22.8667 80.3067 22.6 79.88 22.44C79.4667 22.2667 78.9867 22.18 78.44 22.18C77.4133 22.18 76.5933 22.5867 75.98 23.4C75.3667 24.2 75.06 25.42 75.06 27.06C75.06 28.8333 75.2933 30.0933 75.76 30.84C76.2267 31.5733 76.9533 31.94 77.94 31.94C78.6333 31.94 79.26 31.7867 79.82 31.48V28.34H78.02L77.7 26.02H83V32.88C82.28 33.3467 81.4867 33.7067 80.62 33.96C79.7533 34.2133 78.8867 34.34 78.02 34.34C75.9133 34.34 74.3267 33.7267 73.26 32.5C72.1933 31.26 71.66 29.4467 71.66 27.06C71.66 25.54 71.9467 24.2333 72.52 23.14C73.1067 22.0467 73.9 21.22 74.9 20.66C75.9133 20.0867 77.0467 19.8 78.3 19.8ZM88.2906 23.38V34H85.1306V23.38H88.2906ZM86.6906 17.78C87.2373 17.78 87.684 17.9533 88.0306 18.3C88.3906 18.6333 88.5706 19.06 88.5706 19.58C88.5706 20.1 88.3906 20.5333 88.0306 20.88C87.684 21.2133 87.2373 21.38 86.6906 21.38C86.144 21.38 85.6973 21.2133 85.3506 20.88C85.004 20.5333 84.8306 20.1 84.8306 19.58C84.8306 19.06 85.004 18.6333 85.3506 18.3C85.6973 17.9533 86.144 17.78 86.6906 17.78ZM97.4352 33.5C97.0485 33.7667 96.5952 33.9733 96.0752 34.12C95.5685 34.2667 95.0618 34.34 94.5552 34.34C92.2352 34.3267 91.0752 33.0467 91.0752 30.5V25.58H89.5752V23.38H91.0752V21.08L94.2352 20.72V23.38H96.6752L96.3352 25.58H94.2352V30.46C94.2352 30.9533 94.3152 31.3067 94.4752 31.52C94.6352 31.7333 94.8885 31.84 95.2352 31.84C95.5952 31.84 95.9752 31.7267 96.3752 31.5L97.4352 33.5ZM105.99 34V28.06H101.83V34H98.55V20.14H101.83V25.5H105.99V20.14H109.27V34H105.99ZM120.77 34H118.03L117.89 32.66C117.117 33.78 116.044 34.34 114.67 34.34C113.697 34.34 112.957 34.0467 112.45 33.46C111.957 32.8733 111.71 32.0533 111.71 31V23.38H114.87V30.6C114.87 31.12 114.95 31.4867 115.11 31.7C115.284 31.9 115.544 32 115.89 32C116.557 32 117.13 31.5867 117.61 30.76V23.38H120.77V34ZM129.276 23.04C130.542 23.04 131.516 23.54 132.196 24.54C132.876 25.5267 133.216 26.9133 133.216 28.7C133.216 29.7933 133.042 30.7667 132.696 31.62C132.362 32.4733 131.876 33.14 131.236 33.62C130.609 34.1 129.862 34.34 128.996 34.34C128.422 34.34 127.896 34.22 127.416 33.98C126.949 33.74 126.549 33.4067 126.216 32.98L126.056 34H123.256V19.16L126.416 18.82V24.46C126.736 24.02 127.142 23.6733 127.636 23.42C128.142 23.1667 128.689 23.04 129.276 23.04ZM128.076 32.04C129.316 32.04 129.936 30.9267 129.936 28.7C129.936 27.4333 129.789 26.56 129.496 26.08C129.202 25.6 128.776 25.36 128.216 25.36C127.509 25.36 126.909 25.7733 126.416 26.6V31.02C126.616 31.34 126.856 31.5933 127.136 31.78C127.429 31.9533 127.742 32.04 128.076 32.04Z" fill="white"/>
</svg>
