<svg width="192" height="54" viewBox="0 0 192 54" fill="none" xmlns="http://www.w3.org/2000/svg">
<rect width="192" height="54" rx="5" fill="#0A66C2"/>
<path d="M79.1429 30.2571L87.9714 40.5714H81L73.1429 31.0986V40.5714H67.4286V13.4286H73.1429V29.3886L80.4 21.5714H87.6857L79.1429 30.2571ZM56.2857 21.0286C53.746 21.0647 51.3864 22.2818 49.9714 24.2857V21.5714H44.5714V40.5714H50.2857V31.6957C50.134 30.3935 50.5586 29.0899 51.4579 28.0965C52.3572 27.1032 53.6505 26.5094 55.0286 26.4571C58.3429 26.4571 58.8571 29.5514 58.8571 31.6957V40.5714H64.5714V30.5014C64.5714 24.53 62.4857 21.0286 56.4 21.0286H56.2857ZM107.429 31.5057C107.45 31.9035 107.45 32.3022 107.429 32.7H92.4286V32.89C92.9315 35.2281 95.1474 36.8731 97.6571 36.7714C99.6046 36.8519 101.503 36.1757 102.914 34.8986L106.714 37.6129C104.279 39.9739 100.906 41.2459 97.4286 41.1143C94.5475 41.2873 91.7289 40.2657 89.7013 38.3135C87.6738 36.3613 86.6363 33.6702 86.8571 30.9357C86.798 28.2388 87.9216 25.6399 89.959 23.761C91.9963 21.8821 94.7642 20.8924 97.6 21.0286C102.971 21.0286 107.429 24.6386 107.429 31.5057ZM102.114 29.1714C102.072 28.0849 101.561 27.0626 100.702 26.3441C99.8434 25.6255 98.7113 25.2739 97.5714 25.3714C95.059 25.1134 92.7837 26.7945 92.4286 29.1714H102.114ZM21.7143 13.4286H16V40.5714H33.1429V35.1429H21.7143V13.4286ZM124.571 13.4286H130.286V40.5714H124.886V38.6714C123.495 40.2989 121.376 41.2049 119.171 41.1143C116.487 41.0488 113.951 39.9338 112.16 38.0327C110.37 36.1316 109.485 33.6129 109.714 31.0714C109.441 28.5253 110.307 25.9874 112.1 24.0774C113.894 22.1674 116.449 21.0611 119.143 21.0286C121.147 20.9452 123.103 21.6297 124.571 22.9286V13.4286ZM125 31.0714C125.182 29.8033 124.777 28.5225 123.889 27.5596C123.002 26.5967 121.719 26.0461 120.371 26.05C117.638 26.2385 115.567 28.4717 115.714 31.0714C115.567 33.6712 117.638 35.9043 120.371 36.0929C121.719 36.0967 123.002 35.5462 123.889 34.5833C124.777 33.6204 125.182 32.3396 125 31.0714ZM38.8571 12.8857C36.9508 12.9115 35.3906 14.3344 35.2857 16.1429C35.2857 18.0167 36.8847 19.5357 38.8571 19.5357C40.8296 19.5357 42.4286 18.0167 42.4286 16.1429C42.3237 14.3344 40.7635 12.9115 38.8571 12.8857ZM36 40.5714H41.7143V21.5714H36V40.5714ZM176 10.7143V43.2857C176 44.7848 174.721 46 173.143 46H138.857C137.279 46 136 44.7848 136 43.2857V10.7143C136 9.21523 137.279 8 138.857 8H173.143C174.721 8 176 9.21523 176 10.7143ZM147.429 21.5714H141.714V40.5714H147.429V21.5714ZM148.143 16.1429C148.143 14.269 146.544 12.75 144.571 12.75C142.599 12.75 141 14.269 141 16.1429C141 18.0167 142.599 19.5357 144.571 19.5357C146.544 19.5357 148.143 18.0167 148.143 16.1429ZM170.286 30.5014C170.286 24.53 168.2 21.0286 162.114 21.0286C159.534 21.0289 157.123 22.2502 155.686 24.2857V21.5714H150.286V40.5714H156V31.6957C155.848 30.3935 156.273 29.0899 157.172 28.0965C158.072 27.1032 159.365 26.5094 160.743 26.4571C164.057 26.4571 164.571 29.5514 164.571 31.6957V40.5714H170.286V30.5014Z" fill="white"/>
</svg>
