<svg width="228" height="26" viewBox="0 0 228 26" fill="none" xmlns="http://www.w3.org/2000/svg">
<path d="M17.324 24.028L0.115967 16.324V11.536L17.324 3.86799V9.26799L6.27197 13.912L17.324 18.592V24.028Z" fill="#FAFAFA"/>
<path d="M30.9694 25.36C29.8174 25.36 28.8094 25.216 27.9454 24.928C27.0814 24.616 26.3014 24.16 25.6054 23.56L25.3174 25H20.2774V0.735992H26.0734V8.72799C26.7214 8.34399 27.4534 8.05599 28.2694 7.86399C29.0854 7.67199 29.9254 7.57599 30.7894 7.57599C33.2854 7.57599 35.2534 8.27199 36.6934 9.66399C38.1334 11.032 38.8534 13.252 38.8534 16.324C38.8534 19.396 38.1454 21.676 36.7294 23.164C35.3134 24.628 33.3934 25.36 30.9694 25.36ZM29.3134 21.148C30.6094 21.148 31.5334 20.764 32.0854 19.996C32.6614 19.204 32.9494 17.992 32.9494 16.36C32.9494 14.68 32.6494 13.504 32.0494 12.832C31.4734 12.16 30.5614 11.824 29.3134 11.824C27.9454 11.824 26.8654 12.184 26.0734 12.904V19.852C26.9374 20.716 28.0174 21.148 29.3134 21.148Z" fill="#FAFAFA"/>
<path d="M41.793 25V7.93599H47.301L47.481 9.51999C48.225 9.06399 49.149 8.65599 50.253 8.29599C51.357 7.91199 52.461 7.67199 53.565 7.57599V11.932C52.941 12.004 52.245 12.124 51.477 12.292C50.733 12.436 50.013 12.616 49.317 12.832C48.645 13.048 48.069 13.276 47.589 13.516V25H41.793Z" fill="#FAFAFA"/>
<path d="M64.1909 25.36C61.2149 25.36 58.8269 24.628 57.0269 23.164C55.2269 21.676 54.3269 19.444 54.3269 16.468C54.3269 13.756 55.0709 11.596 56.5589 9.98799C58.0469 8.37999 60.2789 7.57599 63.2549 7.57599C65.9669 7.57599 68.0669 8.27199 69.5549 9.66399C71.0429 11.056 71.7869 12.928 71.7869 15.28V18.34H59.6909C59.9549 19.468 60.5669 20.26 61.5269 20.716C62.5109 21.148 63.8429 21.364 65.5229 21.364C66.4589 21.364 67.4069 21.28 68.3669 21.112C69.3509 20.944 70.1669 20.728 70.8149 20.464V24.244C69.9989 24.628 69.0269 24.904 67.8989 25.072C66.7709 25.264 65.5349 25.36 64.1909 25.36ZM59.6909 14.992H66.7469V14.236C66.7469 13.396 66.4949 12.736 65.9909 12.256C65.4869 11.752 64.6349 11.5 63.4349 11.5C62.0429 11.5 61.0709 11.788 60.5189 12.364C59.9669 12.916 59.6909 13.792 59.6909 14.992Z" fill="#FAFAFA"/>
<path d="M78.7777 25L72.0457 7.93599H78.0937L81.8377 19.024L85.6177 7.93599H91.6657L84.9337 25H78.7777Z" fill="#FAFAFA"/>
<path d="M98.6134 25.36C97.2454 25.36 95.9494 25.264 94.7254 25.072C93.5014 24.88 92.5294 24.64 91.8094 24.352V19.924C92.6494 20.284 93.6214 20.56 94.7254 20.752C95.8294 20.944 96.8134 21.04 97.6774 21.04C98.7094 21.04 99.4534 20.992 99.9094 20.896C100.389 20.8 100.629 20.536 100.629 20.104C100.629 19.624 100.245 19.264 99.4774 19.024C98.7094 18.784 97.6534 18.436 96.3094 17.98C94.7494 17.428 93.5614 16.792 92.7454 16.072C91.9534 15.328 91.5574 14.236 91.5574 12.796C91.5574 11.116 92.1814 9.83199 93.4294 8.94399C94.7014 8.03199 96.7174 7.57599 99.4774 7.57599C100.557 7.57599 101.625 7.65999 102.681 7.82799C103.737 7.99599 104.601 8.18799 105.273 8.40399V12.76C104.601 12.448 103.833 12.22 102.969 12.076C102.105 11.932 101.325 11.86 100.629 11.86C99.7414 11.86 98.9854 11.92 98.3614 12.04C97.7614 12.136 97.4614 12.388 97.4614 12.796C97.4614 13.252 97.7974 13.576 98.4694 13.768C99.1414 13.936 100.113 14.224 101.385 14.632C102.729 15.04 103.773 15.484 104.517 15.964C105.261 16.42 105.789 16.972 106.101 17.62C106.413 18.268 106.569 19.084 106.569 20.068C106.569 21.772 105.897 23.08 104.553 23.992C103.209 24.904 101.229 25.36 98.6134 25.36Z" fill="#FAFAFA"/>
<path d="M117.977 25.36C114.929 25.36 112.541 24.616 110.813 23.128C109.109 21.64 108.257 19.42 108.257 16.468C108.257 13.468 109.145 11.236 110.921 9.77199C112.721 8.30799 115.109 7.57599 118.085 7.57599C119.333 7.57599 120.413 7.67199 121.325 7.86399C122.261 8.03199 123.161 8.31999 124.025 8.72799V12.832C122.681 12.184 121.109 11.86 119.309 11.86C117.629 11.86 116.345 12.196 115.457 12.868C114.593 13.54 114.161 14.74 114.161 16.468C114.161 18.076 114.569 19.252 115.385 19.996C116.201 20.716 117.497 21.076 119.273 21.076C121.025 21.076 122.621 20.716 124.061 19.996V24.28C123.197 24.664 122.261 24.94 121.253 25.108C120.269 25.276 119.177 25.36 117.977 25.36Z" fill="#FAFAFA"/>
<path d="M126.292 25V20.752H130.936V25H126.292Z" fill="#9B67D2"/>
<path d="M141.066 25.36C139.41 25.36 137.994 25.096 136.818 24.568C135.642 24.04 134.742 23.176 134.118 21.976C133.494 20.752 133.182 19.12 133.182 17.08C133.182 15.016 133.542 13.288 134.262 11.896C134.982 10.48 135.966 9.41199 137.214 8.69199C138.486 7.94799 139.938 7.57599 141.57 7.57599C142.458 7.57599 143.25 7.67199 143.946 7.86399C144.666 8.05599 145.338 8.34399 145.962 8.72799V0.735992H151.758V25H146.754L146.43 23.56C145.734 24.16 144.954 24.616 144.09 24.928C143.226 25.216 142.218 25.36 141.066 25.36ZM142.722 21.148C143.994 21.148 145.074 20.716 145.962 19.852V12.94C145.146 12.196 144.102 11.824 142.83 11.824C141.606 11.824 140.67 12.292 140.022 13.228C139.398 14.14 139.086 15.436 139.086 17.116C139.086 18.748 139.386 19.828 139.986 20.356C140.61 20.884 141.522 21.148 142.722 21.148Z" fill="#FAFAFA"/>
<path d="M164.21 25.36C161.234 25.36 158.846 24.628 157.046 23.164C155.246 21.676 154.346 19.444 154.346 16.468C154.346 13.756 155.09 11.596 156.578 9.98799C158.066 8.37999 160.298 7.57599 163.274 7.57599C165.986 7.57599 168.086 8.27199 169.574 9.66399C171.062 11.056 171.806 12.928 171.806 15.28V18.34H159.71C159.974 19.468 160.586 20.26 161.546 20.716C162.53 21.148 163.862 21.364 165.542 21.364C166.478 21.364 167.426 21.28 168.386 21.112C169.37 20.944 170.186 20.728 170.834 20.464V24.244C170.018 24.628 169.046 24.904 167.918 25.072C166.79 25.264 165.554 25.36 164.21 25.36ZM159.71 14.992H166.766V14.236C166.766 13.396 166.514 12.736 166.01 12.256C165.506 11.752 164.654 11.5 163.454 11.5C162.062 11.5 161.09 11.788 160.538 12.364C159.986 12.916 159.71 13.792 159.71 14.992Z" fill="#FAFAFA"/>
<path d="M178.797 25L172.065 7.93599H178.113L181.857 19.024L185.637 7.93599H191.685L184.953 25H178.797Z" fill="#FAFAFA"/>
<path d="M193.932 25L202.356 1.16799H208.296L199.872 25H193.932Z" fill="#9B67D2"/>
<path d="M210.526 24.028V18.592L221.542 13.912L210.526 9.26799V3.86799L227.734 11.536V16.324L210.526 24.028Z" fill="#FAFAFA"/>
</svg>
